<svg xmlns="http://www.w3.org/2000/svg" xmlns:xlink="http://www.w3.org/1999/xlink" width="840" height="494.2"><rect width="840" height="494.2" rx="5" ry="5" class="a"/><svg y="0%" x="0%"><circle cx="20" cy="20" r="6" fill="#ff5f58"/><circle cx="40" cy="20" r="6" fill="#ffbd2e"/><circle cx="60" cy="20" r="6" fill="#18c132"/></svg><svg height="434.2" viewBox="0 0 80 43.42" width="800" x="15" xmlns="http://www.w3.org/2000/svg" xmlns:xlink="http://www.w3.org/1999/xlink" y="50"><style>@keyframes i{0%{transform:translateX(0)}.8%{transform:translateX(-80px)}1%{transform:translateX(-160px)}22.9%{transform:translateX(-240px)}55.7%{transform:translateX(-320px)}55.9%{transform:translateX(-400px)}56%{transform:translateX(-480px)}77.9%{transform:translateX(-560px)}99.9%{transform:translateX(-880px)}to{transform:translateX(-960px)}}.a{fill:#282d35}.f{fill:#b9c0cb;white-space:pre}</style><g font-family="Monaco,Consolas,Menlo,'Bitstream Vera Sans Mono','Powerline Symbols',monospace" font-size="1.67"><defs><symbol id="1"><text y="1.67" class="f">$</text><text x="2.004" y="1.67" class="f">netkit</text><text x="9.018" y="1.67" class="f">scan</text><text x="14.028" y="1.67" class="f">10.0.0.1</text><text x="23.046" y="1.67" class="f">-p</text><text x="26.052" y="1.67" class="f">22,80,443,3306</text></symbol><symbol id="2"><text y="1.67" class="f">Scanning</text><text x="9.018" y="1.67" class="f">10.0.0.1</text><text x="18.036" y="1.67" class="f">—</text><text x="20.04" y="1.67" class="f">4</text><text x="22.044" y="1.67" class="f">ports...</text></symbol><symbol id="3"><text y="1.67" class="f">┌───────────────</text><text x="17.034" y="1.67" class="f">Open</text><text x="22.044" y="1.67" class="f">Ports</text><text x="28.056" y="1.67" class="f">—</text><text x="30.06" y="1.67" class="f">10.0.0.1</text><text x="39.078" y="1.67" class="f">───────────────┐</text></symbol><symbol id="4"><text y="1.67" class="f">│</text><text x="2.004" y="1.67" class="f">Port</text><text x="8.016" y="1.67" class="f">│</text><text x="10.02" y="1.67" class="f">Proto</text><text x="16.032" y="1.67" class="f">│</text><text x="18.036" y="1.67" class="f">State</text><text x="24.048" y="1.67" class="f">│</text><text x="26.052" y="1.67" class="f">Service</text><text x="37.074" y="1.67" class="f">│</text><text x="39.078" y="1.67" class="f">Banner</text><text x="54.108" y="1.67" class="f">│</text></symbol><symbol id="5"><text y="1.67" class="f">├───────┼───────┼───────┼────────────┼────────────────┤</text></symbol><symbol id="6"><text y="1.67" class="f">│</text><text x="2.004" y="1.67" class="f">22</text><text x="8.016" y="1.67" class="f">│</text><text x="10.02" y="1.67" class="f">tcp</text><text x="16.032" y="1.67" class="f">│</text><text x="18.036" y="1.67" class="f">open</text><text x="24.048" y="1.67" class="f">│</text><text x="26.052" y="1.67" class="f">SSH</text><text x="37.074" y="1.67" class="f">│</text><text x="39.078" y="1.67" class="f">OpenSSH_9.6</text><text x="54.108" y="1.67" class="f">│</text></symbol><symbol id="7"><text y="1.67" class="f">│</text><text x="2.004" y="1.67" class="f">80</text><text x="8.016" y="1.67" class="f">│</text><text x="10.02" y="1.67" class="f">tcp</text><text x="16.032" y="1.67" class="f">│</text><text x="18.036" y="1.67" class="f">open</text><text x="24.048" y="1.67" class="f">│</text><text x="26.052" y="1.67" class="f">HTTP</text><text x="37.074" y="1.67" class="f">│</text><text x="39.078" y="1.67" class="f">nginx/1.24</text><text x="54.108" y="1.67" class="f">│</text></symbol><symbol id="8"><text y="1.67" class="f">│</text><text x="2.004" y="1.67" class="f">443</text><text x="8.016" y="1.67" class="f">│</text><text x="10.02" y="1.67" class="f">tcp</text><text x="16.032" y="1.67" class="f">│</text><text x="18.036" y="1.67" class="f">open</text><text x="24.048" y="1.67" class="f">│</text><text x="26.052" y="1.67" class="f">HTTPS</text><text x="37.074" y="1.67" class="f">│</text><text x="39.078" y="1.67" class="f">[TLS</text><text x="44.088" y="1.67" class="f">OK]</text><text x="54.108" y="1.67" class="f">│</text></symbol><symbol id="9"><text y="1.67" class="f">│</text><text x="2.004" y="1.67" class="f">3306</text><text x="8.016" y="1.67" class="f">│</text><text x="10.02" y="1.67" class="f">tcp</text><text x="16.032" y="1.67" class="f">│</text><text x="18.036" y="1.67" class="f">open</text><text x="24.048" y="1.67" class="f">│</text><text x="26.052" y="1.67" class="f">MySQL</text><text x="37.074" y="1.67" class="f">│</text><text x="39.078" y="1.67" class="f">8.0.36</text><text x="53.106" y="1.67" class="f">│</text></symbol><symbol id="10"><text y="1.67" class="f">└──────────────────────────────────────────────────────┘</text></symbol><symbol id="11"><text y="1.67" class="f">$</text><text x="2.004" y="1.67" class="f">netkit</text><text x="9.018" y="1.67" class="f">dns</text><text x="13.026" y="1.67" class="f">example.com</text><text x="25.05" y="1.67" class="f">--types</text><text x="33.066" y="1.67" class="f">A</text></symbol><symbol id="12"><text y="1.67" class="f">DNS</text><text x="4.008" y="1.67" class="f">Lookup</text><text x="11.022" y="1.67" class="f">for</text><text x="15.03" y="1.67" class="f">example.com</text></symbol><symbol id="13"><text x="14.028" y="1.67" class="f">A</text><text x="16.032" y="1.67" class="f">Records</text></symbol><symbol id="14"><text x="2.004" y="1.67" class="f">Name</text><text x="16.032" y="1.67" class="f">TTL</text><text x="22.044" y="1.67" class="f">Value</text></symbol><symbol id="15"><text x="1.002" y="1.67" class="f">────────────────────────────────────</text></symbol><symbol id="16"><text x="2.004" y="1.67" class="f">example.com</text><text x="16.032" y="1.67" class="f">38400</text><text x="23.046" y="1.67" class="f">93.184.216.34</text></symbol><symbol id="17"><text y="1.67" class="f">$</text><text x="2.004" y="1.67" class="f">netkit</text><text x="9.018" y="1.67" class="f">subnet</text><text x="16.032" y="1.67" class="f">10.0.0.0/24</text></symbol><symbol id="18"><text x="2.004" y="1.67" class="f">Property</text><text x="18.036" y="1.67" class="f">Value</text></symbol><symbol id="19"><text x="1.002" y="1.67" class="f">───────────────────────────────</text></symbol><symbol id="20"><text x="2.004" y="1.67" class="f">Netmask</text><text x="18.036" y="1.67" class="f">255.255.255.0</text></symbol><symbol id="21"><text x="2.004" y="1.67" class="f">Wildcard</text><text x="11.022" y="1.67" class="f">Mask</text><text x="18.036" y="1.67" class="f">0.0.0.255</text></symbol><symbol id="22"><text x="2.004" y="1.67" class="f">Cidr</text><text x="7.014" y="1.67" class="f">Prefix</text><text x="18.036" y="1.67" class="f">24</text></symbol><symbol id="23"><text x="2.004" y="1.67" class="f">Address</text><text x="10.02" y="1.67" class="f">Count</text><text x="18.036" y="1.67" class="f">256</text></symbol><symbol id="24"><text x="2.004" y="1.67" class="f">Usable</text><text x="9.018" y="1.67" class="f">Hosts</text><text x="18.036" y="1.67" class="f">254</text></symbol><symbol id="25"><text x="2.004" y="1.67" class="f">First</text><text x="8.016" y="1.67" class="f">Host</text><text x="18.036" y="1.67" class="f">10.0.0.1</text></symbol><symbol id="26"><text x="2.004" y="1.67" class="f">Last</text><text x="7.014" y="1.67" class="f">Host</text><text x="18.036" y="1.67" class="f">10.0.0.254</text></symbol><symbol id="27"><text x="2.004" y="1.67" class="f">Broadcast</text><text x="18.036" y="1.67" class="f">10.0.0.255</text></symbol><symbol id="28"><text x="2.004" y="1.67" class="f">Is</text><text x="5.01" y="1.67" class="f">Private</text><text x="18.036" y="1.67" class="f">True</text></symbol><symbol id="a"><path fill="transparent" d="M0 0h80v21H0z"/></symbol><symbol id="b"><path fill="#6f7683" d="M0 0h1.102v2.171H0z"/></symbol></defs><path class="a" d="M0 0h80v43.42H0z"/><g style="animation-duration:.924239s;animation-iteration-count:infinite;animation-name:i;animation-timing-function:steps(1,end)"><svg width="1040"><svg><use xlink:href="#a"/><use xlink:href="#b" x="-.004"/></svg><svg x="80"><use xlink:href="#a"/><use xlink:href="#b" x="39.996"/><use xlink:href="#1"/></svg><svg x="160"><use xlink:href="#a"/><use xlink:href="#b" x="-.004" y="2.146"/><use xlink:href="#1"/></svg><svg x="240"><use xlink:href="#a"/><use xlink:href="#b" x="-.004" y="4.317"/><use xlink:href="#1"/><use xlink:href="#2" y="2.171"/></svg><svg x="320"><use xlink:href="#a"/><use xlink:href="#b" x="54.996" y="4.317"/><use xlink:href="#1"/><use xlink:href="#2" y="2.171"/><use xlink:href="#3" y="4.342"/></svg><svg x="400"><use xlink:href="#a"/><use xlink:href="#b" x="-.004" y="13.001"/><use xlink:href="#1"/><use xlink:href="#2" y="2.171"/><use xlink:href="#3" y="4.342"/><use xlink:href="#4" y="6.513"/><use xlink:href="#5" y="8.684"/><use xlink:href="#6" y="10.855"/></svg><svg x="480"><use xlink:href="#a"/><use xlink:href="#b" x="-.004" y="26.027"/><use xlink:href="#1"/><use xlink:href="#2" y="2.171"/><use xlink:href="#3" y="4.342"/><use xlink:href="#4" y="6.513"/><use xlink:href="#5" y="8.684"/><use xlink:href="#6" y="10.855"/><use xlink:href="#7" y="13.026"/><use xlink:href="#8" y="15.197"/><use xlink:href="#9" y="17.368"/><use xlink:href="#10" y="19.539"/><use xlink:href="#11" y="23.881"/></svg><svg x="560"><use xlink:href="#a"/><use xlink:href="#b" x="-.004" y="41.224"/><use xlink:href="#1"/><use xlink:href="#2" y="2.171"/><use xlink:href="#3" y="4.342"/><use xlink:href="#4" y="6.513"/><use xlink:href="#5" y="8.684"/><use xlink:href="#6" y="10.855"/><use xlink:href="#7" y="13.026"/><use xlink:href="#8" y="15.197"/><use xlink:href="#9" y="17.368"/><use xlink:href="#10" y="19.539"/><use xlink:href="#11" y="23.881"/><use xlink:href="#12" y="26.052"/><use xlink:href="#13" y="28.223"/><use xlink:href="#14" y="30.394"/><use xlink:href="#15" y="32.565"/><use xlink:href="#16" y="34.736"/><use xlink:href="#17" y="39.078"/></svg><svg x="640"><use xlink:href="#a"/><use xlink:href="#b" x="-.004" y="43.395"/><use xlink:href="#1"/><use xlink:href="#2" y="2.171"/><use xlink:href="#3" y="4.342"/><use xlink:href="#4" y="6.513"/><use xlink:href="#5" y="8.684"/><use xlink:href="#6" y="10.855"/><use xlink:href="#7" y="13.026"/><use xlink:href="#8" y="15.197"/><use xlink:href="#9" y="17.368"/><use xlink:href="#10" y="19.539"/><use xlink:href="#11" y="23.881"/><use xlink:href="#12" y="26.052"/><use xlink:href="#13" y="28.223"/><use xlink:href="#14" y="30.394"/><use xlink:href="#15" y="32.565"/><use xlink:href="#16" y="34.736"/><use xlink:href="#17" y="39.078"/><use xlink:href="#18" y="41.249"/></svg><svg x="720"><use xlink:href="#a"/><use xlink:href="#b" x="32.996" y="43.395"/><use xlink:href="#4"/><use xlink:href="#5" y="2.171"/><use xlink:href="#6" y="4.342"/><use xlink:href="#7" y="6.513"/><use xlink:href="#8" y="8.684"/><use xlink:href="#9" y="10.855"/><use xlink:href="#10" y="13.026"/><use xlink:href="#11" y="17.368"/><use xlink:href="#12" y="19.539"/><use xlink:href="#13" y="21.71"/><use xlink:href="#14" y="23.881"/><use xlink:href="#15" y="26.052"/><use xlink:href="#16" y="28.223"/><use xlink:href="#17" y="32.565"/><use xlink:href="#18" y="34.736"/><use xlink:href="#19" y="36.907"/><use xlink:href="#20" y="39.078"/><use xlink:href="#21" y="41.249"/><use xlink:href="#22" y="43.42"/></svg><svg x="800"><use xlink:href="#a"/><use xlink:href="#b" x="32.996" y="43.395"/><use xlink:href="#6"/><use xlink:href="#7" y="2.171"/><use xlink:href="#8" y="4.342"/><use xlink:href="#9" y="6.513"/><use xlink:href="#10" y="8.684"/><use xlink:href="#11" y="13.026"/><use xlink:href="#12" y="15.197"/><use xlink:href="#13" y="17.368"/><use xlink:href="#14" y="19.539"/><use xlink:href="#15" y="21.71"/><use xlink:href="#16" y="23.881"/><use xlink:href="#17" y="28.223"/><use xlink:href="#18" y="30.394"/><use xlink:href="#19" y="32.565"/><use xlink:href="#20" y="34.736"/><use xlink:href="#21" y="36.907"/><use xlink:href="#22" y="39.078"/><use xlink:href="#23" y="41.249"/><use xlink:href="#24" y="43.42"/></svg><svg x="880"><use xlink:href="#a"/><use xlink:href="#b" x="-.004" y="43.395"/><use xlink:href="#11" y="2.171"/><use xlink:href="#12" y="4.342"/><use xlink:href="#13" y="6.513"/><use xlink:href="#14" y="8.684"/><use xlink:href="#15" y="10.855"/><use xlink:href="#16" y="13.026"/><use xlink:href="#17" y="17.368"/><use xlink:href="#18" y="19.539"/><use xlink:href="#19" y="21.71"/><use xlink:href="#20" y="23.881"/><use xlink:href="#21" y="26.052"/><use xlink:href="#22" y="28.223"/><use xlink:href="#23" y="30.394"/><use xlink:href="#24" y="32.565"/><use xlink:href="#25" y="34.736"/><use xlink:href="#26" y="36.907"/><use xlink:href="#27" y="39.078"/><use xlink:href="#28" y="41.249"/></svg><svg x="960"><use xlink:href="#a"/><use xlink:href="#b" x="-.004" y="43.395"/><use xlink:href="#11"/><use xlink:href="#12" y="2.171"/><use xlink:href="#13" y="4.342"/><use xlink:href="#14" y="6.513"/><use xlink:href="#15" y="8.684"/><use xlink:href="#16" y="10.855"/><use xlink:href="#17" y="15.197"/><use xlink:href="#18" y="17.368"/><use xlink:href="#19" y="19.539"/><use xlink:href="#20" y="21.71"/><use xlink:href="#21" y="23.881"/><use xlink:href="#22" y="26.052"/><use xlink:href="#23" y="28.223"/><use xlink:href="#24" y="30.394"/><use xlink:href="#25" y="32.565"/><use xlink:href="#26" y="34.736"/><use xlink:href="#27" y="36.907"/><use xlink:href="#28" y="39.078"/><text x="2.004" y="42.919" class="f">Is</text><text x="5.01" y="42.919" class="f">Loopback</text><text x="18.036" y="42.919" class="f">False</text></svg></svg></g></g></svg></svg>